<?xml version="1.0" standalone="no"?>
<!DOCTYPE svg PUBLIC "-//W3C//DTD SVG 20010904//EN"
 "http://www.w3.org/TR/2001/REC-SVG-20010904/DTD/svg10.dtd">
<svg version="1.0" xmlns="http://www.w3.org/2000/svg"
 width="347.000000pt" height="189.000000pt" viewBox="0 0 347.000000 189.000000"
 preserveAspectRatio="xMidYMid meet">

<g transform="translate(0.000000,189.000000) scale(0.100000,-0.100000)"
fill="#000000" stroke="none">
<path d="M500 1870 c-14 -4 -41 -9 -60 -9 -28 -1 -32 -4 -20 -12 12 -8 8 -10
-17 -7 -18 3 -30 1 -28 -3 3 -4 -2 -10 -11 -13 -9 -4 -12 -2 -8 5 3 6 -13 -4
-37 -21 -24 -18 -43 -36 -41 -42 1 -5 -1 -7 -6 -4 -10 6 -78 -41 -74 -52 1 -4
-4 -7 -10 -7 -7 -1 -12 -7 -10 -14 1 -7 -1 -10 -6 -7 -5 3 -26 -12 -46 -33
-21 -21 -34 -41 -29 -43 4 -3 3 -4 -3 -2 -26 6 -87 -85 -73 -107 5 -8 9 -30 9
-50 0 -60 56 -172 83 -166 6 1 12 -2 12 -8 1 -5 10 -25 22 -43 19 -31 22 -32
32 -15 8 14 9 11 5 -17 -2 -19 1 -57 9 -84 12 -45 14 -48 29 -32 24 24 33 19
15 -8 -23 -35 -28 -72 -15 -130 12 -60 47 -128 61 -119 6 3 7 1 4 -5 -9 -14 3
-43 14 -36 5 3 8 1 7 -4 -4 -12 55 -132 65 -132 6 0 10 48 11 152 1 14 4 24 7
22 9 -5 20 56 12 69 -3 5 -1 7 5 3 6 -3 15 9 23 31 6 20 26 52 43 71 17 18 34
40 39 47 31 55 323 225 314 183 -1 -6 10 -11 25 -12 20 -1 30 5 40 24 7 14 17
28 23 32 5 4 7 8 3 8 -9 0 12 60 21 60 4 0 7 17 8 38 1 20 9 54 17 74 9 21 16
45 16 55 0 10 7 31 15 47 14 27 14 31 -11 64 -30 38 -113 81 -174 89 -77 11
-190 -54 -214 -121 -4 -11 -1 -62 5 -113 14 -107 7 -133 -41 -158 -26 -13 -30
-13 -30 -1 0 8 9 18 21 21 20 7 20 7 2 27 -30 33 -95 65 -144 71 -37 5 -57 1
-93 -17 -54 -27 -62 -15 -11 15 36 22 46 33 20 23 -9 -4 -15 0 -15 9 0 14 -55
47 -79 47 -17 0 -13 26 6 41 15 12 16 12 10 -6 -5 -14 0 -11 18 10 33 38 77
134 68 148 -3 5 -1 7 4 4 6 -4 27 9 47 29 l36 35 22 -20 c33 -32 57 -35 81
-13 12 11 32 23 45 27 28 8 28 20 -1 69 -25 44 -31 47 -67 36z m-220 -284 c0
-3 -4 -8 -10 -11 -5 -3 -10 -1 -10 4 0 6 5 11 10 11 6 0 10 -2 10 -4z"/>
<path d="M2950 1209 c-13 -6 -41 -7 -62 -4 l-38 7 0 -36 c0 -27 6 -40 26 -52
22 -15 32 -16 73 -5 27 7 60 9 75 5 24 -6 26 -4 26 29 0 55 -42 79 -100 56z"/>
<path d="M660 1125 c-8 -9 -8 -15 -2 -15 12 0 26 19 19 26 -2 2 -10 -2 -17
-11z"/>
<path d="M1490 1081 c-82 -26 -98 -38 -110 -79 -13 -50 -13 -446 1 -497 6 -22
20 -49 30 -61 11 -11 16 -24 12 -29 -5 -4 -2 -5 5 -1 6 4 12 2 12 -4 0 -7 7
-9 16 -6 8 3 13 2 10 -3 -3 -5 8 -11 25 -15 48 -9 71 -8 63 5 -5 8 2 10 21 6
32 -6 79 19 68 36 -3 5 -1 7 5 3 14 -8 42 32 35 50 -3 8 0 14 6 14 13 0 14
474 1 505 -5 11 -9 16 -9 11 -1 -13 -51 35 -51 48 0 6 7 3 14 -6 7 -10 17 -18
21 -18 21 0 -32 41 -64 50 -45 12 -45 12 -111 -9z m56 -90 c-4 -5 -2 -11 3
-13 6 -2 11 -102 13 -243 l3 -241 -27 4 -28 4 0 233 c0 128 -3 240 -6 249 -5
12 0 16 21 16 14 0 24 -4 21 -9z m-49 -448 c-3 -10 -5 -2 -5 17 0 19 2 27 5
18 2 -10 2 -26 0 -35z"/>
<path d="M2515 1073 c-22 -15 -46 -33 -53 -42 -11 -13 -12 -13 -6 -1 6 12 5
13 -7 2 -18 -17 -27 -542 -9 -542 6 0 9 -4 5 -9 -3 -5 2 -17 11 -25 8 -9 12
-16 8 -16 -3 0 -1 -7 6 -15 7 -9 15 -13 17 -11 3 3 10 1 17 -4 43 -35 65 -58
59 -63 -3 -4 -1 -7 5 -7 6 0 9 -7 6 -15 -4 -8 -15 -15 -25 -15 -10 0 -19 -4
-19 -10 0 -7 -325 -10 -956 -10 -868 0 -956 -1 -950 -16 3 -9 6 -18 6 -20 0
-2 635 -4 1410 -4 1403 0 1410 0 1410 20 0 20 -7 20 -400 20 -341 0 -400 2
-400 14 0 8 -5 27 -11 43 -15 36 -18 63 -7 63 4 0 8 -4 8 -10 0 -18 29 -10 40
11 7 11 14 18 17 15 11 -10 34 24 40 59 3 19 10 35 14 35 5 0 9 36 9 79 l0 79
-66 4 c-36 1 -68 1 -70 -1 -2 -2 -4 -44 -4 -92 0 -85 -1 -87 -25 -91 l-25 -5
0 243 0 244 25 0 c24 0 25 -3 25 -56 0 -30 4 -53 9 -50 11 7 9 -57 -3 -65 -4
-4 -3 -10 3 -13 6 -4 11 -2 11 3 0 6 7 11 15 11 8 0 15 -3 15 -7 0 -5 21 -9
47 -10 26 -1 42 2 36 5 -8 5 -9 13 -3 22 14 22 13 179 -1 160 -8 -12 -9 -9 -5
12 5 22 0 34 -23 58 -53 56 -141 65 -206 23z m82 -79 c-3 -3 -12 -4 -19 -1 -8
3 -5 6 6 6 11 1 17 -2 13 -5z m40 -81 c-2 -16 -4 -5 -4 22 0 28 2 40 4 28 2
-13 2 -35 0 -50z m5 -278 c-2 -19 -6 -35 -8 -35 -2 0 -4 16 -4 35 0 19 4 35 8
35 4 0 6 -16 4 -35z m-2 -149 c0 -2 -7 -6 -15 -10 -8 -3 -15 -1 -15 4 0 6 7
10 15 10 8 0 15 -2 15 -4z m7 -38 c-3 -8 -6 -5 -6 6 -1 11 2 17 5 13 3 -3 4
-12 1 -19z m66 -175 c-7 -2 -21 -2 -30 0 -10 3 -4 5 12 5 17 0 24 -2 18 -5z"/>
<path d="M3260 1093 c-20 -3 -48 -16 -64 -31 -16 -15 -26 -20 -21 -12 5 11 2
10 -11 -3 -16 -15 -18 -32 -18 -130 l1 -112 -7 90 c-5 75 -6 61 -7 -85 -1 -96
2 -214 6 -261 7 -83 9 -87 47 -122 29 -28 45 -36 62 -32 15 4 21 2 17 -5 -8
-13 55 -13 91 0 33 13 66 47 88 91 13 27 16 72 16 277 l0 245 -26 34 c-43 57
-76 67 -174 56z m45 -113 c26 0 34 -164 19 -387 -6 -85 -8 -91 -30 -96 l-23
-4 -1 237 c0 210 5 299 18 262 2 -7 10 -12 17 -12z"/>
<path d="M567 1051 c-17 -19 -24 -29 -14 -22 9 7 17 11 17 8 0 -16 -24 -57
-37 -61 -11 -5 -11 -2 -2 17 12 21 11 21 -6 7 -29 -24 -83 -149 -96 -224 -19
-114 5 -281 51 -346 12 -16 26 -28 31 -24 5 3 8 1 7 -4 -4 -13 40 -72 53 -72
6 0 7 5 4 10 -3 6 -4 10 0 10 3 0 10 -12 16 -26 5 -15 12 -24 15 -21 3 3 -6
28 -20 55 -71 140 -103 354 -72 485 18 76 54 154 98 209 26 34 27 37 8 35 -11
-1 -35 -17 -53 -36z m43 26 c0 -2 -10 -12 -22 -23 l-23 -19 19 23 c18 21 26
27 26 19z"/>
<path d="M746 1082 c-9 -8 -7 -682 2 -681 4 1 9 0 12 -1 13 -5 136 -7 145 -2
11 7 17 8 51 10 20 2 21 6 14 37 -4 20 -4 35 1 35 5 0 9 -8 10 -17 0 -12 2
-13 6 -5 7 19 -17 43 -41 41 -68 -5 -66 -8 -66 100 l0 99 33 -3 c43 -3 57 10
57 56 0 41 -3 43 -57 40 l-32 -2 -3 96 -3 95 46 0 c56 0 68 12 67 68 l0 43
-119 -2 c-65 0 -120 -4 -123 -7z"/>
<path d="M1024 1045 c3 -28 8 -70 10 -95 19 -210 27 -283 34 -300 4 -8 7 -37
8 -65 3 -70 21 -166 33 -178 18 -18 103 -11 118 9 12 17 13 17 13 -1 0 -10 3
-15 8 -11 11 12 35 155 33 204 -1 30 2 41 10 36 8 -5 9 11 4 56 -5 40 -4 60 3
56 9 -5 18 62 27 202 2 24 6 46 9 49 3 4 6 23 6 43 l0 36 -52 -6 c-90 -12 -84
4 -92 -223 -7 -223 -24 -331 -25 -166 -1 53 -4 98 -7 101 -3 4 -6 64 -7 136
-2 136 -10 162 -49 162 -10 0 -16 -4 -13 -10 3 -5 -1 -10 -10 -10 -9 0 -13 5
-10 10 3 6 -1 10 -9 10 -9 0 -16 -5 -16 -11 0 -8 -6 -7 -16 2 -15 12 -16 9
-10 -36z"/>
<path d="M1751 742 c1 -193 5 -338 9 -327 5 11 9 14 9 6 1 -7 7 -11 16 -8 8 4
17 2 20 -3 3 -4 0 -10 -6 -12 -7 -2 7 -4 29 -5 23 0 42 4 42 9 0 6 6 5 15 -2
13 -10 15 -9 16 11 l0 24 9 -22 c5 -13 12 -23 15 -23 4 0 4 4 0 9 -3 6 11 9
35 8 39 -2 40 -1 40 28 0 40 -22 70 -44 62 -9 -4 -15 -3 -12 2 3 5 -7 8 -22 8
-15 0 -21 -2 -14 -4 6 -3 12 -12 12 -20 0 -12 -7 -8 -23 10 -12 15 -29 27 -37
27 -11 0 -12 2 -2 8 9 6 14 78 19 275 l6 267 -24 1 c-13 1 -27 1 -30 1 -3 0
-22 3 -42 8 l-38 8 2 -346z m116 -279 c-3 -10 -5 -4 -5 12 0 17 2 24 5 18 2
-7 2 -21 0 -30z m-40 -55 c-3 -7 -5 -2 -5 12 0 14 2 19 5 13 2 -7 2 -19 0 -25z"/>
<path d="M2050 797 l0 -289 27 -49 c14 -27 29 -47 31 -44 3 3 13 -2 23 -11 10
-9 25 -14 34 -11 8 4 15 2 15 -3 0 -6 12 -10 28 -10 52 0 100 21 131 56 l31
35 0 310 0 311 -47 -7 c-27 -4 -53 -11 -59 -16 -6 -5 -13 -7 -16 -4 -2 3 -6
-120 -7 -273 -1 -152 -5 -280 -9 -284 -4 -3 -17 -8 -30 -10 l-23 -3 1 286 c0
233 -2 288 -13 298 -8 6 -37 10 -66 9 l-51 -2 0 -289z"/>
<path d="M2855 1079 c-3 -5 -6 -30 -6 -56 0 -27 0 -65 -1 -85 0 -21 -5 -38
-10 -38 -7 0 -8 -19 -4 -54 3 -31 2 -56 -3 -58 -6 -2 -13 -39 -16 -83 -3 -44
-10 -114 -15 -155 -5 -41 -9 -89 -9 -107 -1 -31 0 -31 54 -35 40 -2 55 0 55
10 0 7 5 10 10 7 6 -4 10 8 10 28 0 40 26 70 41 46 5 -8 9 -28 9 -45 0 -43 20
-56 85 -59 l56 -2 -6 41 c-3 23 -12 109 -20 191 -24 247 -36 358 -43 410 l-7
50 -87 2 c-48 1 -90 -3 -93 -8z m104 -396 c1 -67 -3 -103 -10 -103 -5 0 -8 4
-5 9 4 5 1 11 -5 13 -8 3 -9 44 -3 143 7 116 9 131 15 90 4 -27 8 -96 8 -152z"/>
<path d="M376 632 c-2 -4 -1 -14 5 -22 7 -12 9 -10 9 8 0 23 -5 28 -14 14z"/>
</g>
</svg>
